<svg xmlns="http://www.w3.org/2000/svg" x="0px" y="0px"
width="50" height="50"
viewBox="0 0 226 226"
style=" fill:#000000;"><g fill="none" fill-rule="nonzero" stroke="none" stroke-width="1" stroke-linecap="butt" stroke-linejoin="miter" stroke-miterlimit="10" stroke-dasharray="" stroke-dashoffset="0" font-family="none" font-weight="none" font-size="none" text-anchor="none" style="mix-blend-mode: normal"><path d="M0,226v-226h226v226z" fill="none"></path><g fill="#ffffff"><path d="M113,8.67805c-57.56169,0 -104.32195,46.76026 -104.32195,104.32195c0,57.56169 46.76026,104.32195 104.32195,104.32195c57.56169,0 104.32195,-46.76026 104.32195,-104.32195c0,-57.56169 -46.76026,-104.32195 -104.32195,-104.32195zM108.48,18.24773v44.89984c-11.60505,-0.27388 -22.63867,-1.57152 -32.81414,-3.69898c1.7917,-5.42781 3.82785,-10.47187 6.09141,-14.99899c7.47126,-14.94253 16.94727,-24.03706 26.72273,-26.20187zM117.52,18.24773c9.77547,2.16481 19.25147,11.25935 26.72273,26.20188c2.27079,4.54157 4.3133,9.60419 6.10906,15.05195c-10.16278,2.10621 -21.21133,3.37786 -32.8318,3.64602zM86.65687,21.42586c-4.90598,5.13947 -9.28064,11.56939 -12.98617,18.98047c-2.58239,5.16479 -4.84753,10.86272 -6.82414,16.94117c-8.87333,-2.39208 -16.89791,-5.40203 -23.82711,-8.89875c11.66125,-12.63808 26.6386,-22.15134 43.63742,-27.02289zM139.34312,21.42586c16.98238,4.86684 31.94561,14.36786 43.60211,26.98758c-6.82682,3.56054 -14.84251,6.60444 -23.76531,9.00469c-1.98177,-6.10524 -4.25822,-11.82699 -6.85063,-17.0118c-3.70554,-7.41108 -8.08019,-13.841 -12.98617,-18.98047zM188.86008,55.47594c11.28696,14.86997 18.38007,33.10044 19.30711,53.00406h-40.86539c-0.3299,-15.17501 -2.26945,-29.50275 -5.5882,-42.33969c10.14206,-2.74375 19.28331,-6.3391 27.14648,-10.66437zM37.08695,55.54656c7.94823,4.22028 17.10469,7.77317 27.21711,10.5143c-3.33092,12.85686 -5.27529,27.21343 -5.60586,42.41914h-40.86539c0.92557,-19.87225 7.99841,-38.07613 19.25414,-52.93344zM73.11453,68.18844c10.99419,2.33929 22.87737,3.73241 35.36547,4.00797v36.28359h-40.7418c0.33627,-14.52109 2.23476,-28.19454 5.37633,-40.29156zM152.90312,68.25023c3.13219,12.08192 5.02297,25.73321 5.35867,40.22977h-40.7418v-36.28359c12.49535,-0.26787 24.39208,-1.62894 35.38313,-3.94617zM17.83281,117.52h40.86539c0.3299,15.17501 2.26945,29.50275 5.5882,42.33969c-10.14206,2.74375 -19.28331,6.3391 -27.14648,10.66437c-11.28697,-14.86997 -18.38007,-33.10044 -19.30711,-53.00406zM67.7382,117.52h40.7418v36.28359c-12.49535,0.26787 -24.39208,1.62894 -35.38312,3.94617c-3.13219,-12.08192 -5.02297,-25.73321 -5.35867,-40.22977zM117.52,117.52h40.7418c-0.33627,14.52109 -2.23476,28.19454 -5.37633,40.29156c-10.99419,-2.33929 -22.87737,-3.73241 -35.36547,-4.00797zM167.3018,117.52h40.86539c-0.92558,19.87225 -7.99842,38.07613 -19.25414,52.93344c-7.94823,-4.22028 -17.10469,-7.77317 -27.21711,-10.5143c3.33092,-12.85686 5.27529,-27.21343 5.60586,-42.41914zM108.48,162.85242v44.89984c-9.77547,-2.16481 -19.25147,-11.25935 -26.72273,-26.20187c-2.27079,-4.54157 -4.3133,-9.6042 -6.10906,-15.05195c10.16278,-2.10621 21.21133,-3.37786 32.8318,-3.64602zM117.52,162.85242c11.60505,0.27388 22.63867,1.57152 32.81414,3.69898c-1.7917,5.42781 -3.82785,10.47186 -6.09141,14.99899c-7.47126,14.94252 -16.94727,24.03706 -26.72273,26.20188zM66.82008,168.58188c1.98177,6.10524 4.25822,11.82699 6.85062,17.0118c3.70554,7.41108 8.08019,13.841 12.98617,18.98047c-16.98238,-4.86684 -31.94561,-14.36786 -43.60211,-26.98758c6.82682,-3.56054 14.84251,-6.60444 23.76531,-9.00469zM159.15344,168.6525c8.87333,2.39208 16.89791,5.40203 23.82711,8.89875c-11.66125,12.63808 -26.6386,22.15134 -43.63742,27.02289c4.90598,-5.13947 9.28064,-11.56939 12.98617,-18.98047c2.58239,-5.16479 4.84753,-10.86272 6.82414,-16.94117z"></path></g></g></svg>